<mxfile host="app.diagrams.net" agent="Mozilla/5.0 (Macintosh; Intel Mac OS X 10_15_7) AppleWebKit/537.36 (KHTML, like Gecko) Chrome/139.0.0.0 Safari/537.36" version="28.2.5">
  <diagram id="dc-DEmwPtq7ed_NysKeX" name="dataflow">
    <mxGraphModel dx="1328" dy="1266" grid="1" gridSize="10" guides="1" tooltips="1" connect="1" arrows="1" fold="1" page="0" pageScale="1" pageWidth="850" pageHeight="1100" math="0" shadow="0">
      <root>
        <mxCell id="0" />
        <mxCell id="1" parent="0" />
        <mxCell id="Bn8TtBgQpCcRCf1qiH7X-1" value="&lt;font face=&quot;JetBrains Mono&quot; data-font-src=&quot;https://fonts.googleapis.com/css?family=JetBrains+Mono&quot;&gt;&amp;nbsp;1&amp;nbsp; import { exec } from &quot;child_process&quot;;&lt;/font&gt;&lt;div&gt;&lt;font face=&quot;JetBrains Mono&quot; data-font-src=&quot;https://fonts.googleapis.com/css?family=JetBrains+Mono&quot;&gt;&amp;nbsp;2&amp;nbsp;&lt;br&gt;&lt;/font&gt;&lt;div&gt;&lt;font face=&quot;JetBrains Mono&quot; data-font-src=&quot;https://fonts.googleapis.com/css?family=JetBrains+Mono&quot;&gt;&amp;nbsp;3&amp;nbsp; export function runE(fileName) {&lt;/font&gt;&lt;/div&gt;&lt;/div&gt;&lt;div&gt;&lt;font face=&quot;JetBrains Mono&quot; data-font-src=&quot;https://fonts.googleapis.com/css?family=JetBrains+Mono&quot;&gt;&amp;nbsp;4&amp;nbsp; &amp;nbsp; // express-child-process&lt;/font&gt;&lt;/div&gt;&lt;div&gt;&lt;font face=&quot;JetBrains Mono&quot; data-font-src=&quot;https://fonts.googleapis.com/css?family=JetBrains+Mono&quot;&gt;&amp;nbsp;5&amp;nbsp; &amp;nbsp; exec(`cat *.js ${filename} | wc -l`, (error,&amp;nbsp;&lt;/font&gt;&lt;/div&gt;&lt;div&gt;&lt;font face=&quot;JetBrains Mono&quot; data-font-src=&quot;https://fonts.googleapis.com/css?family=JetBrains+Mono&quot;&gt;&amp;nbsp;6&amp;nbsp; &amp;nbsp; &amp;nbsp; &amp;nbsp; return res.send(&quot;ok&quot;);&lt;/font&gt;&lt;/div&gt;&lt;div&gt;&lt;font face=&quot;JetBrains Mono&quot;&gt;&amp;nbsp;7&amp;nbsp; &amp;nbsp; });&lt;/font&gt;&lt;/div&gt;&lt;div&gt;&lt;font face=&quot;JetBrains Mono&quot;&gt;&amp;nbsp;8&amp;nbsp; }&lt;/font&gt;&lt;/div&gt;&lt;div&gt;&lt;font face=&quot;JetBrains Mono&quot;&gt;&amp;nbsp;9&lt;/font&gt;&lt;/div&gt;" style="rounded=1;whiteSpace=wrap;html=1;sketch=1;curveFitting=1;jiggle=2;fontFamily=Gloria Hallelujah;fontSource=https%3A%2F%2Ffonts.googleapis.com%2Fcss%3Ffamily%3DGloria%2BHallelujah;fillColor=#f8cecc;strokeColor=#b85450;align=left;" parent="1" vertex="1">
          <mxGeometry x="150" y="-65" width="370" height="245" as="geometry" />
        </mxCell>
        <mxCell id="Bn8TtBgQpCcRCf1qiH7X-8" value="&lt;b&gt;&lt;font style=&quot;font-size: 15px;&quot;&gt;execService.js&lt;/font&gt;&lt;/b&gt;" style="text;html=1;align=left;verticalAlign=middle;whiteSpace=wrap;rounded=0;fontFamily=Gloria Hallelujah;fontSource=https%3A%2F%2Ffonts.googleapis.com%2Fcss%3Ffamily%3DGloria%2BHallelujah;" parent="1" vertex="1">
          <mxGeometry x="280" y="-50" width="190" height="30" as="geometry" />
        </mxCell>
        <mxCell id="Bn8TtBgQpCcRCf1qiH7X-9" value="req.params" style="text;html=1;align=left;verticalAlign=middle;whiteSpace=wrap;rounded=0;fontFamily=Gloria Hallelujah;fontSource=https%3A%2F%2Ffonts.googleapis.com%2Fcss%3Ffamily%3DGloria%2BHallelujah;" parent="1" vertex="1">
          <mxGeometry x="-40" y="-170" width="70" height="30" as="geometry" />
        </mxCell>
        <mxCell id="Bn8TtBgQpCcRCf1qiH7X-15" value="&lt;div&gt;&lt;span style=&quot;background-color: transparent; color: light-dark(rgb(0, 0, 0), rgb(255, 255, 255));&quot;&gt;vulnerable-express.js&lt;/span&gt;&lt;/div&gt;" style="rounded=1;whiteSpace=wrap;html=1;sketch=1;curveFitting=1;jiggle=2;fontFamily=Gloria Hallelujah;fontSource=https%3A%2F%2Ffonts.googleapis.com%2Fcss%3Ffamily%3DGloria%2BHallelujah;fillColor=#d5e8d4;strokeColor=#82b366;align=left;" parent="1" vertex="1">
          <mxGeometry x="-100" y="-220" width="215" height="45" as="geometry" />
        </mxCell>
        <mxCell id="Bn8TtBgQpCcRCf1qiH7X-16" value="Line 4" style="text;html=1;align=left;verticalAlign=middle;whiteSpace=wrap;rounded=0;fontFamily=Gloria Hallelujah;fontSource=https%3A%2F%2Ffonts.googleapis.com%2Fcss%3Ffamily%3DGloria%2BHallelujah;fontColor=#66B2FF;" parent="1" vertex="1">
          <mxGeometry x="-100" y="-170" width="70" height="30" as="geometry" />
        </mxCell>
        <mxCell id="Bn8TtBgQpCcRCf1qiH7X-18" style="edgeStyle=none;curved=1;rounded=0;orthogonalLoop=1;jettySize=auto;html=1;fontSize=12;startSize=8;endSize=8;sketch=1;curveFitting=1;jiggle=2;dashed=1;dashPattern=12 12;endArrow=oval;endFill=0;startArrow=oval;startFill=1;" parent="1" edge="1">
          <mxGeometry relative="1" as="geometry">
            <mxPoint x="-112" y="170" as="targetPoint" />
            <mxPoint x="-112.5" y="-160" as="sourcePoint" />
          </mxGeometry>
        </mxCell>
        <mxCell id="Bn8TtBgQpCcRCf1qiH7X-17" value="&lt;font data-font-src=&quot;https://fonts.googleapis.com/css?family=Gloria+Hallelujah&quot; face=&quot;Gloria Hallelujah&quot;&gt;source&lt;/font&gt;" style="whiteSpace=wrap;html=1;shape=mxgraph.basic.document;sketch=1;curveFitting=1;jiggle=2;fillColor=#d5e8d4;strokeColor=#82b366;" parent="1" vertex="1">
          <mxGeometry x="-180" y="-175" width="55" height="40" as="geometry" />
        </mxCell>
        <mxCell id="Bn8TtBgQpCcRCf1qiH7X-19" value="&lt;div&gt;&lt;span style=&quot;background-color: transparent; color: light-dark(rgb(0, 0, 0), rgb(255, 255, 255));&quot;&gt;greetingHandler.js&lt;/span&gt;&lt;/div&gt;" style="rounded=1;whiteSpace=wrap;html=1;sketch=1;curveFitting=1;jiggle=2;fontFamily=Gloria Hallelujah;fontSource=https%3A%2F%2Ffonts.googleapis.com%2Fcss%3Ffamily%3DGloria%2BHallelujah;fillColor=#fff2cc;strokeColor=#d6b656;align=left;" parent="1" vertex="1">
          <mxGeometry x="-100" y="-90" width="215" height="45" as="geometry" />
        </mxCell>
        <mxCell id="Bn8TtBgQpCcRCf1qiH7X-20" value="&lt;div&gt;&lt;span style=&quot;background-color: transparent; color: light-dark(rgb(0, 0, 0), rgb(255, 255, 255));&quot;&gt;execService.js&lt;/span&gt;&lt;/div&gt;" style="rounded=1;whiteSpace=wrap;html=1;sketch=1;curveFitting=1;jiggle=2;fontFamily=Gloria Hallelujah;fontSource=https%3A%2F%2Ffonts.googleapis.com%2Fcss%3Ffamily%3DGloria%2BHallelujah;fillColor=#fff2cc;strokeColor=#d6b656;align=left;" parent="1" vertex="1">
          <mxGeometry x="-100" y="50" width="215" height="45" as="geometry" />
        </mxCell>
        <mxCell id="Bn8TtBgQpCcRCf1qiH7X-21" value="&lt;font data-font-src=&quot;https://fonts.googleapis.com/css?family=Gloria+Hallelujah&quot; face=&quot;Gloria Hallelujah&quot;&gt;Sink&lt;/font&gt;" style="whiteSpace=wrap;html=1;shape=mxgraph.basic.document;sketch=1;curveFitting=1;jiggle=2;fillColor=#f8cecc;strokeColor=#b85450;" parent="1" vertex="1">
          <mxGeometry x="-180" y="145" width="55" height="40" as="geometry" />
        </mxCell>
        <mxCell id="Bn8TtBgQpCcRCf1qiH7X-23" value="handleGreeting" style="text;html=1;align=left;verticalAlign=middle;whiteSpace=wrap;rounded=0;fontFamily=Gloria Hallelujah;fontSource=https%3A%2F%2Ffonts.googleapis.com%2Fcss%3Ffamily%3DGloria%2BHallelujah;" parent="1" vertex="1">
          <mxGeometry x="-40" y="-130" width="70" height="30" as="geometry" />
        </mxCell>
        <mxCell id="Bn8TtBgQpCcRCf1qiH7X-24" value="Line 5" style="text;html=1;align=left;verticalAlign=middle;whiteSpace=wrap;rounded=0;fontFamily=Gloria Hallelujah;fontSource=https%3A%2F%2Ffonts.googleapis.com%2Fcss%3Ffamily%3DGloria%2BHallelujah;fontColor=#66B2FF;" parent="1" vertex="1">
          <mxGeometry x="-100" y="-130" width="70" height="30" as="geometry" />
        </mxCell>
        <mxCell id="Bn8TtBgQpCcRCf1qiH7X-25" value="fileName" style="text;html=1;align=left;verticalAlign=middle;whiteSpace=wrap;rounded=0;fontFamily=Gloria Hallelujah;fontSource=https%3A%2F%2Ffonts.googleapis.com%2Fcss%3Ffamily%3DGloria%2BHallelujah;" parent="1" vertex="1">
          <mxGeometry x="-40" y="-30" width="70" height="30" as="geometry" />
        </mxCell>
        <mxCell id="Bn8TtBgQpCcRCf1qiH7X-26" value="Line 3" style="text;html=1;align=left;verticalAlign=middle;whiteSpace=wrap;rounded=0;fontFamily=Gloria Hallelujah;fontSource=https%3A%2F%2Ffonts.googleapis.com%2Fcss%3Ffamily%3DGloria%2BHallelujah;fontColor=#66B2FF;" parent="1" vertex="1">
          <mxGeometry x="-100" y="-30" width="70" height="30" as="geometry" />
        </mxCell>
        <mxCell id="Bn8TtBgQpCcRCf1qiH7X-28" value="Line 4" style="text;html=1;align=left;verticalAlign=middle;whiteSpace=wrap;rounded=0;fontFamily=Gloria Hallelujah;fontSource=https%3A%2F%2Ffonts.googleapis.com%2Fcss%3Ffamily%3DGloria%2BHallelujah;fontColor=#66B2FF;" parent="1" vertex="1">
          <mxGeometry x="-100" y="10" width="70" height="30" as="geometry" />
        </mxCell>
        <mxCell id="Bn8TtBgQpCcRCf1qiH7X-29" value="runE" style="text;html=1;align=left;verticalAlign=middle;whiteSpace=wrap;rounded=0;fontFamily=Gloria Hallelujah;fontSource=https%3A%2F%2Ffonts.googleapis.com%2Fcss%3Ffamily%3DGloria%2BHallelujah;" parent="1" vertex="1">
          <mxGeometry x="-40" y="10" width="70" height="30" as="geometry" />
        </mxCell>
        <mxCell id="Bn8TtBgQpCcRCf1qiH7X-30" value="fileName" style="text;html=1;align=left;verticalAlign=middle;whiteSpace=wrap;rounded=0;fontFamily=Gloria Hallelujah;fontSource=https%3A%2F%2Ffonts.googleapis.com%2Fcss%3Ffamily%3DGloria%2BHallelujah;" parent="1" vertex="1">
          <mxGeometry x="-40" y="110" width="70" height="30" as="geometry" />
        </mxCell>
        <mxCell id="Bn8TtBgQpCcRCf1qiH7X-31" value="Line 3" style="text;html=1;align=left;verticalAlign=middle;whiteSpace=wrap;rounded=0;fontFamily=Gloria Hallelujah;fontSource=https%3A%2F%2Ffonts.googleapis.com%2Fcss%3Ffamily%3DGloria%2BHallelujah;fontColor=#66B2FF;" parent="1" vertex="1">
          <mxGeometry x="-100" y="110" width="70" height="30" as="geometry" />
        </mxCell>
        <mxCell id="Bn8TtBgQpCcRCf1qiH7X-32" value="`cat *.js ${filename} | wc -l" style="text;html=1;align=left;verticalAlign=middle;whiteSpace=wrap;rounded=0;fontFamily=Gloria Hallelujah;fontSource=https%3A%2F%2Ffonts.googleapis.com%2Fcss%3Ffamily%3DGloria%2BHallelujah;" parent="1" vertex="1">
          <mxGeometry x="-40" y="150" width="180" height="30" as="geometry" />
        </mxCell>
        <mxCell id="Bn8TtBgQpCcRCf1qiH7X-33" value="Line 5" style="text;html=1;align=left;verticalAlign=middle;whiteSpace=wrap;rounded=0;fontFamily=Gloria Hallelujah;fontSource=https%3A%2F%2Ffonts.googleapis.com%2Fcss%3Ffamily%3DGloria%2BHallelujah;fontColor=#66B2FF;" parent="1" vertex="1">
          <mxGeometry x="-100" y="150" width="70" height="30" as="geometry" />
        </mxCell>
      </root>
    </mxGraphModel>
  </diagram>
</mxfile>
